<?xml version="1.0" standalone="no"?>
<!DOCTYPE svg PUBLIC "-//W3C//DTD SVG 20010904//EN"
 "http://www.w3.org/TR/2001/REC-SVG-20010904/DTD/svg10.dtd">
<svg version="1.0" xmlns="http://www.w3.org/2000/svg"
 width="62.000000pt" height="61.000000pt" viewBox="0 0 62.000000 61.000000"
 preserveAspectRatio="xMidYMid meet">

<g transform="translate(0.000000,61.000000) scale(0.100000,-0.100000)"
fill="#000000" stroke="none">
<path d="M148 543 c-1 -37 -2 -80 -2 -95 -1 -16 -11 -34 -29 -48 l-27 -22 2
-186 3 -187 105 0 105 0 3 182 2 182 -30 28 c-29 27 -31 32 -33 118 l-2 90
-47 3 -48 3 -2 -68z m70 40 c-10 -2 -26 -2 -35 0 -10 3 -2 5 17 5 19 0 27 -2
18 -5z m12 -33 c0 -5 -13 -10 -30 -10 -16 0 -30 5 -30 10 0 6 14 10 30 10 17
0 30 -4 30 -10z m0 -55 c0 -22 -4 -25 -35 -25 -19 0 -35 4 -35 9 0 27 15 41
41 41 24 0 29 -4 29 -25z m2 -60 c-2 -14 8 -29 28 -43 50 -37 40 -52 -36 -52
-41 0 -63 -4 -59 -10 3 -5 33 -10 66 -10 l59 0 0 -130 0 -130 -95 0 -95 0 0
130 c0 123 1 130 20 130 11 0 20 5 20 10 0 6 -9 10 -20 10 -29 0 -25 15 14 50
24 22 32 37 29 51 -5 18 -2 20 33 17 33 -2 39 -6 36 -23z m58 -405 c0 -6 -38
-10 -95 -10 -57 0 -95 4 -95 10 0 6 38 10 95 10 57 0 95 -4 95 -10z"/>
<path d="M137 289 c-13 -8 -15 -14 -7 -29 8 -16 15 -18 34 -10 14 5 41 6 60 3
28 -4 37 -2 42 12 4 10 1 21 -7 26 -19 12 -100 11 -122 -2z m97 -5 c31 -12 15
-19 -36 -17 -66 2 -67 3 -43 13 24 10 58 12 79 4z"/>
<path d="M158 219 c-10 -5 -18 -21 -18 -35 0 -49 86 -58 114 -11 9 15 7 22
-13 38 -25 21 -56 24 -83 8z m77 -34 c0 -24 -48 -34 -71 -14 -22 18 2 41 40
37 23 -2 31 -8 31 -23z"/>
<path d="M168 103 c17 -2 47 -2 65 0 17 2 3 4 -33 4 -36 0 -50 -2 -32 -4z"/>
<path d="M387 193 c-4 -3 -7 -43 -7 -88 0 -100 6 -107 87 -103 l58 3 3 98 3
97 -69 0 c-38 0 -72 -3 -75 -7z m133 -33 c0 -16 -7 -20 -37 -22 l-38 -1 38 -4
c36 -4 37 -5 37 -44 l0 -39 -60 0 -60 0 0 40 c0 25 5 40 13 41 10 0 10 2 0 6
-7 2 -13 13 -13 24 0 17 8 19 60 19 53 0 60 -2 60 -20z m-27 -137 c-18 -2 -48
-2 -65 0 -18 2 -4 4 32 4 36 0 50 -2 33 -4z"/>
</g>
</svg>
