<?xml version="1.0" standalone="no"?>
<!DOCTYPE svg PUBLIC "-//W3C//DTD SVG 20010904//EN"
 "http://www.w3.org/TR/2001/REC-SVG-20010904/DTD/svg10.dtd">
<svg version="1.0" xmlns="http://www.w3.org/2000/svg"
 width="62.000000pt" height="61.000000pt" viewBox="0 0 62.000000 61.000000"
 preserveAspectRatio="xMidYMid meet">

<g transform="translate(0.000000,61.000000) scale(0.100000,-0.100000)"
fill="#000000" stroke="none">
<path d="M267 584 c-6 -7 32 -66 46 -73 5 -2 -2 -14 -14 -27 l-22 -23 -29 20
c-16 12 -35 18 -43 15 -27 -10 -16 -43 23 -70 40 -27 67 -33 77 -16 11 17 25
0 25 -29 0 -20 -11 -36 -39 -59 l-39 -31 -6 24 c-6 24 -10 25 -86 25 -79 0
-80 0 -80 25 0 22 4 25 43 27 40 1 40 1 7 5 -24 3 -48 17 -75 43 l-40 39 3
-97 c5 -121 22 -148 22 -33 0 52 4 80 10 76 6 -4 10 -73 10 -176 l0 -169 270
0 c173 0 270 -4 270 -10 0 -6 -100 -10 -280 -10 l-280 0 0 90 c0 53 -4 90 -10
90 -6 0 -10 -39 -10 -96 0 -86 2 -96 19 -101 11 -3 22 -11 25 -19 7 -19 35
-18 42 1 5 13 39 15 215 15 179 0 209 -2 209 -15 0 -8 9 -15 20 -15 11 0 20 7
20 15 0 8 9 15 20 15 28 0 27 46 -2 71 -20 16 -41 18 -154 19 l-131 0 -11 36
c-14 45 5 93 48 124 l30 21 19 -43 c12 -28 36 -56 68 -80 54 -41 77 -47 87
-23 6 17 -10 35 -64 77 -28 21 -38 40 -52 90 -30 111 -31 123 -15 109 8 -6 20
-25 27 -41 13 -32 46 -41 56 -16 3 8 -6 37 -20 64 -22 44 -30 51 -64 57 -35 6
-38 9 -34 31 7 36 -14 54 -63 54 -23 0 -44 -3 -48 -6z m93 -19 c11 -13 8 -15
-13 -15 -39 0 -62 11 -45 21 20 13 44 11 58 -6z m-7 -42 c-7 -2 -19 -2 -25 0
-7 3 -2 5 12 5 14 0 19 -2 13 -5z m57 -40 c3 -2 -3 -9 -12 -14 -10 -5 -15 -15
-13 -22 2 -6 6 -27 9 -44 5 -30 3 -33 -18 -33 -26 0 -36 17 -36 57 0 17 -4 23
-14 20 -25 -10 -27 6 -4 30 18 19 28 22 53 17 16 -3 32 -8 35 -11z m-151 -30
c26 -17 38 -30 32 -36 -6 -6 -25 2 -50 22 -23 18 -41 35 -41 37 0 10 21 2 59
-23z m201 -13 c22 -43 26 -65 10 -55 -10 6 -50 78 -50 90 0 18 23 -1 40 -35z
m-48 -119 c8 -30 1 -61 -9 -35 -2 6 -10 19 -17 29 -12 17 -14 17 -40 0 -36
-24 -45 -11 -15 19 35 36 71 30 81 -13z m-177 -34 c4 -21 0 -47 -13 -77 -10
-25 -17 -51 -15 -57 6 -18 42 -16 49 2 8 21 21 19 27 -5 5 -19 0 -20 -67 -20
-48 0 -79 -5 -92 -15 -40 -30 -44 -21 -44 95 l0 110 75 0 74 0 6 -33z m53 -28
c-7 -21 -13 -27 -18 -18 -9 14 9 61 21 53 4 -2 3 -18 -3 -35z m242 -85 c0 -2
-6 -4 -12 -4 -19 0 -109 80 -102 91 4 8 114 -76 114 -87z m-283 0 c-20 -38
-28 -16 -10 26 12 25 17 30 20 18 2 -9 -2 -29 -10 -44z m16 -71 c-23 -2 -64
-2 -90 0 -26 2 -8 3 42 3 50 0 71 -1 48 -3z m245 0 c-38 -2 -98 -2 -135 0 -38
2 -7 3 67 3 74 0 105 -1 68 -3z"/>
</g>
</svg>
