<?xml version="1.0" standalone="no"?>
<!DOCTYPE svg PUBLIC "-//W3C//DTD SVG 20010904//EN"
 "http://www.w3.org/TR/2001/REC-SVG-20010904/DTD/svg10.dtd">
<svg version="1.0" xmlns="http://www.w3.org/2000/svg"
 width="62.000000pt" height="61.000000pt" viewBox="0 0 62.000000 61.000000"
 preserveAspectRatio="xMidYMid meet">

<g transform="translate(0.000000,61.000000) scale(0.100000,-0.100000)"
fill="#000000" stroke="none">
<path d="M26 591 c-12 -13 -15 -27 -11 -42 4 -12 57 -70 119 -129 110 -107
111 -108 92 -129 -10 -11 -23 -18 -28 -15 -6 4 -50 -33 -99 -82 -99 -99 -109
-125 -64 -169 43 -44 68 -34 167 62 49 48 86 93 84 99 -11 30 12 21 55 -22 31
-30 49 -42 54 -34 4 6 -3 22 -16 36 l-23 24 34 35 34 35 83 -82 c90 -90 101
-116 58 -144 -27 -17 -25 -18 -91 31 -30 21 -27 -9 4 -36 59 -53 132 -26 132
48 0 32 -11 47 -102 139 l-102 104 29 30 c30 32 51 40 42 16 -6 -14 31 -56 49
-56 16 0 84 74 84 91 0 18 -31 49 -48 49 -7 0 -12 6 -12 13 0 24 -123 136
-157 143 -40 8 -94 -10 -123 -41 -23 -24 -23 -25 -5 -45 12 -14 25 -18 42 -14
25 7 73 -27 73 -51 0 -6 -17 -28 -38 -48 l-39 -38 -103 108 c-93 97 -132 132
-151 133 -3 0 -14 -9 -23 -19z m371 -12 c36 -13 123 -98 123 -120 0 -20 25
-43 38 -35 6 3 16 -1 23 -10 10 -13 8 -20 -18 -46 -33 -33 -63 -33 -63 0 0 27
-27 49 -42 34 -17 -17 -58 24 -58 58 0 39 -42 74 -86 73 -35 -1 -35 -1 -17 19
16 18 46 36 65 37 4 1 19 -4 35 -10z m-307 -18 c20 -16 22 -21 11 -35 -20 -24
-39 -19 -55 13 -23 44 0 55 44 22z m144 -150 c87 -88 98 -102 86 -116 -12 -14
-25 -5 -116 86 -80 79 -101 106 -92 116 6 7 13 13 17 13 3 0 51 -45 105 -99z
m171 -21 c17 -19 18 -22 2 -37 -19 -20 -57 -25 -75 -10 -10 8 -7 16 14 39 33
33 36 34 59 8z m-12 -98 c16 -17 15 -20 -18 -52 -34 -33 -35 -33 -55 -15 l-20
19 32 33 c37 38 40 39 61 15z m-116 -13 c6 -6 10 -18 7 -25 -15 -49 -13 -48
-39 -24 -23 22 -24 25 -8 42 19 21 25 22 40 7z m-95 -181 c-44 -43 -87 -78
-96 -78 -21 0 -56 35 -56 56 0 9 35 52 77 95 l77 79 38 -37 39 -38 -79 -77z"/>
<path d="M420 100 c0 -5 5 -10 10 -10 6 0 10 5 10 10 0 6 -4 10 -10 10 -5 0
-10 -4 -10 -10z"/>
</g>
</svg>
