<?xml version="1.0" standalone="no"?>
<!DOCTYPE svg PUBLIC "-//W3C//DTD SVG 20010904//EN"
 "http://www.w3.org/TR/2001/REC-SVG-20010904/DTD/svg10.dtd">
<svg version="1.0" xmlns="http://www.w3.org/2000/svg"
 width="64.000000pt" height="63.000000pt" viewBox="0 0 64.000000 63.000000"
 preserveAspectRatio="xMidYMid meet">

<g transform="translate(0.000000,63.000000) scale(0.100000,-0.100000)"
fill="#000000" stroke="none">
<path d="M97 624 c-11 -11 -8 -84 3 -84 6 0 10 16 10 35 0 19 5 35 10 35 6 0
10 -12 10 -26 0 -14 5 -34 11 -46 14 -26 67 -48 102 -41 34 7 77 56 77 89 0
13 5 24 10 24 13 0 13 -81 0 -140 -22 -101 -10 -91 -108 -88 l-87 3 -15 70
c-9 40 -19 65 -23 58 -4 -7 -1 -40 6 -73 14 -58 13 -65 -9 -130 -19 -59 -54
-212 -54 -241 0 -5 15 -9 33 -9 18 0 71 -13 117 -30 96 -33 135 -37 186 -15
31 13 36 19 32 40 -3 14 -1 25 3 25 5 0 16 15 25 33 17 34 63 87 75 87 5 0 9
-26 11 -57 2 -46 7 -59 21 -61 14 -3 17 4 17 38 0 22 7 57 15 77 23 55 15 113
-18 134 -25 17 -66 -13 -95 -70 -17 -31 -40 -65 -52 -76 -19 -17 -21 -17 -38
-2 -27 25 -56 21 -91 -12 -22 -20 -31 -38 -31 -60 l0 -31 70 0 c63 0 70 -2 70
-20 0 -48 -81 -52 -200 -10 -47 16 -95 30 -107 30 -13 0 -23 2 -23 5 0 20 45
207 57 238 11 27 21 37 37 37 19 0 21 -4 18 -41 -3 -29 -1 -40 7 -35 6 4 11
23 11 42 0 32 2 34 35 34 33 0 35 -2 35 -34 0 -19 5 -38 11 -42 8 -5 10 6 7
34 -3 33 0 42 15 46 21 5 37 -25 58 -107 6 -26 15 -47 20 -47 14 0 11 15 -17
98 -22 66 -24 82 -15 119 6 23 11 78 11 123 0 79 -1 81 -22 78 -14 -2 -24 -11
-26 -23 -8 -53 -14 -66 -42 -80 -54 -28 -107 2 -113 66 -3 24 -10 35 -24 37
-10 2 -22 0 -26 -4z m464 -325 c6 -12 8 -37 4 -58 -3 -20 -9 -60 -12 -88 -7
-72 -23 -67 -23 7 0 35 -4 60 -10 60 -23 0 -62 -35 -86 -76 l-26 -44 -74 0
c-72 0 -73 1 -65 22 4 12 20 31 35 42 25 20 27 20 57 2 28 -16 32 -16 54 -2
14 9 38 43 55 76 39 78 70 98 91 59z"/>
<path d="M397 553 c-15 -14 -6 -23 18 -17 22 5 25 3 25 -20 0 -21 -5 -26 -24
-26 -13 0 -27 6 -29 13 -4 9 -8 8 -16 -3 -6 -8 -11 -18 -11 -22 0 -11 111
-133 120 -133 5 0 34 28 66 63 l57 64 -21 44 -22 44 -78 0 c-43 0 -82 -3 -85
-7z m105 -38 c5 -22 2 -25 -22 -25 -24 0 -27 3 -22 25 3 15 11 25 22 25 11 0
19 -10 22 -25z m58 6 c14 -28 13 -31 -15 -31 -20 0 -25 5 -25 25 0 30 25 34
40 6z m-113 -91 c5 -22 9 -40 8 -40 -1 0 -16 18 -34 40 -32 39 -32 40 -9 40
19 0 26 -8 35 -40z m63 29 c0 -8 4 -8 15 1 8 6 21 10 29 8 12 -2 7 -13 -19
-43 -26 -31 -33 -35 -28 -17 3 13 1 22 -6 22 -6 0 -11 -10 -11 -22 0 -28 -14
-13 -28 30 -11 31 -10 32 19 32 16 0 29 -5 29 -11z"/>
</g>
</svg>
