<?xml version="1.0" standalone="no"?>
<!DOCTYPE svg PUBLIC "-//W3C//DTD SVG 20010904//EN"
 "http://www.w3.org/TR/2001/REC-SVG-20010904/DTD/svg10.dtd">
<svg version="1.0" xmlns="http://www.w3.org/2000/svg"
 width="62.000000pt" height="61.000000pt" viewBox="0 0 62.000000 61.000000"
 preserveAspectRatio="xMidYMid meet">

<g transform="translate(0.000000,61.000000) scale(0.100000,-0.100000)"
fill="#000000" stroke="none">
<path d="M53 478 l-42 -43 6 -172 6 -173 44 0 c23 0 43 5 43 10 0 6 -16 10
-35 10 l-35 0 0 100 0 100 25 -10 c27 -10 74 2 87 23 5 8 13 5 28 -8 27 -24
83 -25 110 0 19 18 21 18 40 0 27 -25 83 -24 110 0 15 13 23 16 28 8 13 -21
60 -33 87 -23 l25 10 0 -100 c0 -93 -1 -100 -20 -100 -18 0 -20 7 -20 80 l0
80 -100 0 -100 0 0 -80 0 -80 -35 0 c-19 0 -35 -4 -35 -10 0 -6 61 -10 163
-10 l164 0 6 172 6 173 -42 43 -41 42 -118 0 c-72 0 -118 -4 -118 -10 0 -6 44
-10 113 -10 111 0 114 -1 140 -28 15 -15 27 -31 27 -35 0 -4 -117 -7 -260 -7
-143 0 -260 4 -260 8 0 5 13 20 28 35 25 24 36 27 100 27 41 0 72 4 72 10 0 6
-33 10 -78 10 l-78 0 -41 -42z m537 -97 c0 -16 -7 -37 -16 -45 -32 -33 -104
-8 -104 36 0 28 -15 21 -31 -14 -12 -29 -18 -33 -54 -33 -35 0 -42 4 -55 32
-8 18 -17 33 -20 33 -3 0 -12 -15 -20 -33 -13 -28 -20 -32 -55 -32 -36 0 -42
4 -54 33 -16 34 -31 42 -31 15 0 -26 -31 -53 -61 -53 -36 0 -59 24 -59 61 l0
29 280 0 280 0 0 -29z m-160 -201 l0 -70 -32 0 -33 0 0 70 0 70 33 0 32 0 0
-70z m90 0 l0 -70 -35 0 -35 0 0 70 0 70 35 0 35 0 0 -70z"/>
<path d="M80 220 c0 -5 6 -10 14 -10 8 0 18 -16 23 -37 l9 -38 66 -3 c62 -3
67 -1 73 20 18 62 22 58 -50 58 -42 0 -64 -4 -60 -10 3 -5 26 -10 51 -10 38 0
45 -3 42 -17 -2 -14 -15 -19 -55 -21 l-51 -3 -7 41 c-6 34 -10 40 -31 40 -13
0 -24 -4 -24 -10z"/>
<path d="M140 105 c0 -8 7 -15 15 -15 8 0 15 7 15 15 0 8 -7 15 -15 15 -8 0
-15 -7 -15 -15z"/>
<path d="M213 108 c2 -7 10 -13 17 -13 7 0 15 6 18 13 2 7 -5 12 -18 12 -13 0
-20 -5 -17 -12z"/>
</g>
</svg>
