<?xml version="1.0" standalone="no"?>
<!DOCTYPE svg PUBLIC "-//W3C//DTD SVG 20010904//EN"
 "http://www.w3.org/TR/2001/REC-SVG-20010904/DTD/svg10.dtd">
<svg version="1.0" xmlns="http://www.w3.org/2000/svg"
 width="625.000000pt" height="625.000000pt" viewBox="0 0 625.000000 625.000000"
 preserveAspectRatio="xMidYMid meet">

<g transform="translate(0.000000,625.000000) scale(0.100000,-0.100000)"
fill="#000000" stroke="none">
<path d="M755 5532 c-120 -42 -205 -117 -258 -230 l-32 -67 0 -1586 0 -1585
38 -76 c55 -112 144 -187 266 -224 38 -11 183 -14 807 -14 717 0 762 -1 766
-17 2 -10 4 -137 4 -283 l-1 -265 -150 -6 c-162 -6 -188 -12 -250 -64 -62 -50
-90 -112 -89 -199 0 -83 21 -130 81 -188 75 -73 73 -73 502 -76 226 -2 388 1
393 6 6 6 -2 28 -19 58 -51 87 -77 159 -98 279 -12 63 -15 188 -15 593 l0 512
-923 0 -924 0 -21 23 -22 23 0 1507 c0 1494 0 1507 20 1527 20 20 33 20 2233
20 l2214 0 21 -23 c22 -23 22 -28 22 -360 l0 -336 38 -6 c70 -12 176 -47 237
-78 33 -18 63 -33 68 -35 11 -6 8 817 -4 863 -33 127 -120 233 -236 288 l-68
32 -2275 2 c-2138 2 -2278 1 -2325 -15z"/>
<path d="M4550 2734 c-70 -25 -101 -50 -139 -114 -21 -35 -21 -39 -21 -901 l0
-867 33 -48 c23 -35 48 -57 87 -77 l55 -28 475 3 c420 3 479 5 505 20 45 24
85 68 106 113 18 38 19 87 19 888 0 813 -1 849 -19 885 -25 48 -60 85 -102
109 -32 17 -68 18 -509 20 -261 1 -482 -1 -490 -3z m854 -270 c9 -24 7 -1347
-2 -1362 -7 -9 -89 -12 -378 -10 l-369 3 -3 680 c-1 374 0 686 3 693 3 9 87
12 374 12 327 0 370 -2 375 -16z m-307 -1512 c29 -35 29 -69 -1 -107 -19 -24
-31 -30 -64 -30 -104 0 -128 131 -32 168 29 12 75 -3 97 -31z"/>
</g>
</svg>
